<svg width="128" height="128" viewBox="0 0 128 128" xmlns="http://www.w3.org/2000/svg">
  <!-- Crab -->
  <g transform="translate(64, 64) scale(0.8)">
    <!-- Body -->
    <ellipse cx="0" cy="10" rx="30" ry="20" fill="#FF4500" />
    
    <!-- Eyes -->
    <line x1="-10" y1="0" x2="-15" y2="-15" stroke="#FF4500" stroke-width="3" />
    <line x1="10" y1="0" x2="15" y2="-15" stroke="#FF4500" stroke-width="3" />
    <circle cx="-15" cy="-15" r="3" fill="white" />
    <circle cx="15" cy="-15" r="3" fill="white" />
    <circle cx="-15" cy="-15" r="1" fill="black" />
    <circle cx="15" cy="-15" r="1" fill="black" />
    
    <!-- Claws -->
    <path d="M-30,5 Q-45,-10 -40,-20 Q-30,-25 -35,-15" fill="#FF4500" />
    <path d="M30,5 Q45,-10 40,-20 Q30,-25 35,-15" fill="#FF4500" />
    
    <!-- Legs -->
    <path d="M-25,25 L-40,35" stroke="#FF4500" stroke-width="3" />
    <path d="M-15,28 L-25,40" stroke="#FF4500" stroke-width="3" />
    <path d="M25,25 L40,35" stroke="#FF4500" stroke-width="3" />
    <path d="M15,28 L25,40" stroke="#FF4500" stroke-width="3" />
  </g>
</svg>
